HIERARCHY
ROOT Hips
{
	OFFSET 0.704856 85.094231 9.025129
	CHANNELS 6 Xposition Yposition Zposition Zrotation Yrotation Xrotation 
	JOINT Spine
	{
		OFFSET 0.000000 8.814246 -2.080107
		CHANNELS 3 Zrotation Yrotation Xrotation
		JOINT Spine1
		{
			OFFSET -0.000000 8.844141 -0.000000
			CHANNELS 3 Zrotation Yrotation Xrotation
			JOINT Spine2
			{
				OFFSET -0.000000 11.682268 -0.000000
				CHANNELS 3 Zrotation Yrotation Xrotation
				JOINT Spine3
				{
					OFFSET 0.000000 11.746700 0.000000
					CHANNELS 3 Zrotation Yrotation Xrotation
					JOINT Neck
					{
						OFFSET -0.000000 17.658264 0.000000
						CHANNELS 3 Zrotation Yrotation Xrotation
						JOINT Neck1
						{
							OFFSET 0.000000 5.101515 -0.000000
							CHANNELS 3 Zrotation Yrotation Xrotation
							JOINT Head
							{
								OFFSET 0.000000 5.101515 0.000000
								CHANNELS 3 Zrotation Yrotation Xrotation
								JOINT HeadEnd
								{
									OFFSET 0.000000 11.655085 0.000000
									CHANNELS 3 Zrotation Yrotation Xrotation
									End Site
									{
										OFFSET 0.000000 0.000000 0.000000
									}
								}
							}
						}
					}
					JOINT RightShoulder
					{
						OFFSET -2.625389 11.175210 -0.000000
						CHANNELS 3 Zrotation Yrotation Xrotation
						JOINT RightArm
						{
							OFFSET -0.000000 10.434715 -0.000000
							CHANNELS 3 Zrotation Yrotation Xrotation
							JOINT RightForeArm
							{
								OFFSET -0.000000 29.628420 -0.000000
								CHANNELS 3 Zrotation Yrotation Xrotation
								JOINT RightHand
								{
									OFFSET -0.000000 22.857611 -0.000000
									CHANNELS 3 Zrotation Yrotation Xrotation
									JOINT RightHandThumb1
									{
										OFFSET -2.867323 3.959563 2.944291
										CHANNELS 3 Zrotation Yrotation Xrotation
										JOINT RightHandThumb2
										{
											OFFSET 0.000000 3.350399 -0.000000
											CHANNELS 3 Zrotation Yrotation Xrotation
											JOINT RightHandThumb3
											{
												OFFSET -0.000000 3.756509 0.000000
												CHANNELS 3 Zrotation Yrotation Xrotation
												JOINT RightHandThumb4
												{
													OFFSET 0.000000 3.147345 -0.000000
													CHANNELS 3 Zrotation Yrotation Xrotation
													End Site
													{
														OFFSET 0.000000 0.000000 0.000000
													}
												}
											}
										}
									}
									JOINT RightHandIndex1
									{
										OFFSET -0.086752 10.030893 2.345280
										CHANNELS 3 Zrotation Yrotation Xrotation
										JOINT RightHandIndex2
										{
											OFFSET 0.000000 4.061090 -0.000000
											CHANNELS 3 Zrotation Yrotation Xrotation
											JOINT RightHandIndex3
											{
												OFFSET 0.000000 3.248873 -0.000000
												CHANNELS 3 Zrotation Yrotation Xrotation
												JOINT RightHandIndex4
												{
													OFFSET -0.000000 2.639709 -0.000000
													CHANNELS 3 Zrotation Yrotation Xrotation
													End Site
													{
														OFFSET 0.000000 0.000000 0.000000
													}
												}
											}
										}
									}
									JOINT RightHandMiddle1
									{
										OFFSET 0.104102 9.502952 0.006768
										CHANNELS 3 Zrotation Yrotation Xrotation
										JOINT RightHandMiddle2
										{
											OFFSET -0.000000 4.568727 0.000000
											CHANNELS 3 Zrotation Yrotation Xrotation
											JOINT RightHandMiddle3
											{
												OFFSET -0.000000 3.654981 0.000000
												CHANNELS 3 Zrotation Yrotation Xrotation
												JOINT RightHandMiddle4
												{
													OFFSET -0.000000 2.741236 0.000000
													CHANNELS 3 Zrotation Yrotation Xrotation
													End Site
													{
														OFFSET 0.000000 0.000000 0.000000
													}
												}
											}
										}
									}
									JOINT RightHandRing1
									{
										OFFSET 0.086752 8.921708 -2.267442
										CHANNELS 3 Zrotation Yrotation Xrotation
										JOINT RightHandRing2
										{
											OFFSET -0.000000 4.061090 0.000000
											CHANNELS 3 Zrotation Yrotation Xrotation
											JOINT RightHandRing3
											{
												OFFSET -0.000000 3.654981 0.000000
												CHANNELS 3 Zrotation Yrotation Xrotation
												JOINT RightHandRing4
												{
													OFFSET -0.000000 2.741236 0.000000
													CHANNELS 3 Zrotation Yrotation Xrotation
													End Site
													{
														OFFSET 0.000000 0.000000 0.000000
													}
												}
											}
										}
									}
									JOINT RightHandPinky1
									{
										OFFSET -0.173504 7.976997 -4.467199
										CHANNELS 3 Zrotation Yrotation Xrotation
										JOINT RightHandPinky2
										{
											OFFSET -0.000000 3.350399 0.000000
											CHANNELS 3 Zrotation Yrotation Xrotation
											JOINT RightHandPinky3
											{
												OFFSET 0.000000 2.842763 -0.000000
												CHANNELS 3 Zrotation Yrotation Xrotation
												JOINT RightHandPinky4
												{
													OFFSET 0.000000 2.639709 -0.000000
													CHANNELS 3 Zrotation Yrotation Xrotation
													End Site
													{
														OFFSET 0.000000 0.000000 0.000000
													}
												}
											}
										}
									}
									JOINT RightForeArmEnd
									{
										OFFSET 0.000000 0.000000 0.000000
										CHANNELS 3 Zrotation Yrotation Xrotation
										End Site
										{
											OFFSET 0.000000 0.000000 0.000000
										}
									}
								}
								JOINT RightArmEnd
								{
									OFFSET 0.000000 0.000000 0.000000
									CHANNELS 3 Zrotation Yrotation Xrotation
									End Site
									{
										OFFSET 0.000000 0.000000 0.000000
									}
								}
							}
						}
					}
					JOINT LeftShoulder
					{
						OFFSET 2.625389 11.175210 0.000000
						CHANNELS 3 Zrotation Yrotation Xrotation
						JOINT LeftArm
						{
							OFFSET 0.000000 10.813635 -0.000000
							CHANNELS 3 Zrotation Yrotation Xrotation
							JOINT LeftForeArm
							{
								OFFSET 0.000000 28.724781 -0.000000
								CHANNELS 3 Zrotation Yrotation Xrotation
								JOINT LeftHand
								{
									OFFSET 0.644384 25.716167 -0.328871
									CHANNELS 3 Zrotation Yrotation Xrotation
									JOINT LeftHandThumb1
									{
										OFFSET 2.867323 3.959563 2.944291
										CHANNELS 3 Zrotation Yrotation Xrotation
										JOINT LeftHandThumb2
										{
											OFFSET -0.000000 3.350399 -0.000000
											CHANNELS 3 Zrotation Yrotation Xrotation
											JOINT LeftHandThumb3
											{
												OFFSET -0.000000 3.756509 -0.000000
												CHANNELS 3 Zrotation Yrotation Xrotation
												JOINT LeftHandThumb4
												{
													OFFSET 0.000000 3.100000 0.000000
													CHANNELS 3 Zrotation Yrotation Xrotation
													End Site
													{
														OFFSET 0.000000 0.000000 0.000000
													}
												}
											}
										}
									}
									JOINT LeftHandIndex1
									{
										OFFSET 0.086752 10.030893 2.345280
										CHANNELS 3 Zrotation Yrotation Xrotation
										JOINT LeftHandIndex2
										{
											OFFSET 0.000000 4.061090 0.000000
											CHANNELS 3 Zrotation Yrotation Xrotation
											JOINT LeftHandIndex3
											{
												OFFSET 0.000000 3.248873 0.000000
												CHANNELS 3 Zrotation Yrotation Xrotation
												JOINT LeftHandIndex4
												{
													OFFSET 0.000000 2.639709 0.000000
													CHANNELS 3 Zrotation Yrotation Xrotation
													End Site
													{
														OFFSET 0.000000 0.000000 0.000000
													}
												}
											}
										}
									}
									JOINT LeftHandMiddle1
									{
										OFFSET -0.104102 9.502952 0.006768
										CHANNELS 3 Zrotation Yrotation Xrotation
										JOINT LeftHandMiddle2
										{
											OFFSET 0.000000 4.568727 0.000000
											CHANNELS 3 Zrotation Yrotation Xrotation
											JOINT LeftHandMiddle3
											{
												OFFSET 0.000000 3.654981 0.000000
												CHANNELS 3 Zrotation Yrotation Xrotation
												JOINT LeftHandMiddle4
												{
													OFFSET 0.000000 2.741236 0.000000
													CHANNELS 3 Zrotation Yrotation Xrotation
													End Site
													{
														OFFSET 0.000000 0.000000 0.000000
													}
												}
											}
										}
									}
									JOINT LeftHandRing1
									{
										OFFSET -0.086752 8.921708 -2.267442
										CHANNELS 3 Zrotation Yrotation Xrotation
										JOINT LeftHandRing2
										{
											OFFSET 0.000000 4.061090 0.000000
											CHANNELS 3 Zrotation Yrotation Xrotation
											JOINT LeftHandRing3
											{
												OFFSET 0.000000 3.654981 0.000000
												CHANNELS 3 Zrotation Yrotation Xrotation
												JOINT LeftHandRing4
												{
													OFFSET 0.000000 2.741236 0.000000
													CHANNELS 3 Zrotation Yrotation Xrotation
													End Site
													{
														OFFSET 0.000000 0.000000 0.000000
													}
												}
											}
										}
									}
									JOINT LeftHandPinky1
									{
										OFFSET 0.173504 7.976997 -4.467199
										CHANNELS 3 Zrotation Yrotation Xrotation
										JOINT LeftHandPinky2
										{
											OFFSET 0.000000 3.350399 0.000000
											CHANNELS 3 Zrotation Yrotation Xrotation
											JOINT LeftHandPinky3
											{
												OFFSET -0.000000 2.842763 0.000000
												CHANNELS 3 Zrotation Yrotation Xrotation
												JOINT LeftHandPinky4
												{
													OFFSET 0.000000 2.639709 -0.000000
													CHANNELS 3 Zrotation Yrotation Xrotation
													End Site
													{
														OFFSET 0.000000 0.000000 0.000000
													}
												}
											}
										}
									}
									JOINT LeftForeArmEnd
									{
										OFFSET 0.000000 0.000000 0.000000
										CHANNELS 3 Zrotation Yrotation Xrotation
										End Site
										{
											OFFSET 0.000000 0.000000 0.000000
										}
									}
								}
								JOINT LeftArmEnd
								{
									OFFSET 0.000000 0.000000 0.000000
									CHANNELS 3 Zrotation Yrotation Xrotation
									End Site
									{
										OFFSET 0.000000 0.000000 0.000000
									}
								}
							}
						}
					}
				}
			}
		}
	}
	JOINT RightUpLeg
	{
		OFFSET -11.289943 0.000000 -0.000000
		CHANNELS 3 Zrotation Yrotation Xrotation
		JOINT RightLeg
		{
			OFFSET 0.000000 -38.200325 0.000000
			CHANNELS 3 Zrotation Yrotation Xrotation
			JOINT RightFoot
			{
				OFFSET -0.000000 -39.900856 -0.000000
				CHANNELS 3 Zrotation Yrotation Xrotation
				JOINT RightToeBase
				{
					OFFSET -0.000000 -0.000000 15.261641
					CHANNELS 3 Zrotation Yrotation Xrotation
					JOINT RightToeBaseEnd
					{
						OFFSET 0.000000 0.000000 7.370709
						CHANNELS 3 Zrotation Yrotation Xrotation
						End Site
						{
							OFFSET 0.000000 0.000000 0.000000
						}
					}
				}
				JOINT RightLegEnd
				{
					OFFSET 0.000000 0.000000 0.000000
					CHANNELS 3 Zrotation Yrotation Xrotation
					End Site
					{
						OFFSET 0.000000 0.000000 0.000000
					}
				}
			}
			JOINT RightUpLegEnd
			{
				OFFSET 0.000000 0.000000 0.000000
				CHANNELS 3 Zrotation Yrotation Xrotation
				End Site
				{
					OFFSET 0.000000 0.000000 0.000000
				}
			}
		}
	}
	JOINT LeftUpLeg
	{
		OFFSET 11.315661 -0.000000 -0.000000
		CHANNELS 3 Zrotation Yrotation Xrotation
		JOINT LeftLeg
		{
			OFFSET 0.000000 -38.200325 -0.000000
			CHANNELS 3 Zrotation Yrotation Xrotation
			JOINT LeftFoot
			{
				OFFSET -0.000000 -39.900856 0.000000
				CHANNELS 3 Zrotation Yrotation Xrotation
				JOINT LeftToeBase
				{
					OFFSET -0.000000 0.000000 15.261641
					CHANNELS 3 Zrotation Yrotation Xrotation
					JOINT LeftToeBaseEnd
					{
						OFFSET -0.000000 -0.000000 7.539996
						CHANNELS 3 Zrotation Yrotation Xrotation
						End Site
						{
							OFFSET 0.000000 0.000000 0.000000
						}
					}
				}
				JOINT LeftLegEnd
				{
					OFFSET 0.000000 0.000000 0.000000
					CHANNELS 3 Zrotation Yrotation Xrotation
					End Site
					{
						OFFSET 0.000000 0.000000 0.000000
					}
				}
			}
			JOINT LeftUpLegEnd
			{
				OFFSET 0.000000 0.000000 0.000000
				CHANNELS 3 Zrotation Yrotation Xrotation
				End Site
				{
					OFFSET 0.000000 0.000000 0.000000
				}
			}
		}
	}
}
MOTION
Frames: 4
Frame Time: 0.016667
-0.812235 86.522934 11.449838 0.045389 4.171248 -23.013800 2.359467 -0.267588 10.508162 0.375917 -0.051870 0.912371 -2.373145 0.124998 16.573217 -2.086020 -0.193282 9.431855 -4.205997 2.118148 14.515323 -0.429123 1.231474 0.150288 -0.653702 -0.984682 -22.117931 0.000000 0.000000 0.000000 91.787354 -0.616684 13.068750 53.232590 -24.003082 16.772476 0.042086 18.089973 33.752804 16.337330 34.086987 1.530264 1.338799 -0.256423 44.441074 0.000011 -0.000007 -3.202415 0.000009 0.000053 -2.344243 0.000021 0.000009 -0.000025 16.411732 0.136075 -8.701548 10.619607 -0.042544 -0.062333 10.502392 -0.009752 -0.073414 -0.000024 0.000011 -0.000003 14.989181 0.030548 -10.214628 9.886243 -0.024644 -0.024419 9.840279 0.000677 -0.029409 -0.000013 -0.000048 0.000010 14.278182 -0.068133 -10.679960 10.088662 0.039345 -0.019271 10.052650 0.002521 -0.013936 0.000012 -0.002106 -0.000001 13.283726 -0.137984 -12.178670 9.511091 0.134521 -0.073138 9.723191 0.007547 -0.095222 0.000989 0.000003 -0.000034 0.000000 0.000000 0.000000 0.000000 0.000000 0.000000 -90.151192 0.144559 8.808750 -60.018753 16.691732 4.661472 -1.219022 -11.649870 43.314552 -8.421960 -38.808979 -8.020787 -0.382584 0.176045 44.755299 0.000009 0.000031 -0.989832 0.000188 -0.000003 -0.703836 0.000267 -0.000005 0.000377 -12.913551 0.165974 -7.163951 -8.808529 -0.055181 -0.021824 -8.791451 -0.012218 -0.014888 0.000009 0.000508 -0.000004 -12.599833 0.059584 -8.860224 -8.480412 -0.035227 -0.008490 -8.599534 -0.005565 -0.009606 0.001432 -0.000028 -0.000052 -14.789464 -0.029348 -10.399220 -9.990145 0.052250 0.006563 -9.821505 0.005031 0.014108 0.000178 0.000015 -0.000006 -16.105413 -0.180521 -12.406272 -10.850688 0.111306 0.017377 -10.747510 -0.008003 -0.020784 -0.000136 0.000011 -0.000044 0.000000 0.000000 0.000000 0.000000 0.000000 0.000000 -7.430923 -6.687080 23.526705 -0.296423 -0.938080 18.414543 3.256900 -11.283546 8.803726 -1.459611 1.401918 -15.590975 0.000000 0.000000 0.000000 0.000000 0.000000 0.000000 0.000000 0.000000 0.000000 3.104355 -6.631988 17.514101 0.329469 0.745424 23.514065 -0.884877 3.480016 8.376889 0.750227 -0.958240 -19.058651 0.000000 0.000000 0.000000 0.000000 0.000000 0.000000 0.000000 0.000000 0.000000 
-0.802714 86.526474 11.469685 0.044447 4.145019 -23.014896 2.360982 -0.270512 10.511062 0.366353 -0.047004 0.885355 -2.370148 0.148801 16.620127 -2.065852 -0.177020 9.423397 -4.134601 2.074783 14.534980 -0.421485 1.216070 0.162640 -0.630028 -0.977722 -22.121792 0.000000 0.000000 0.000000 91.774757 -0.614764 13.085552 53.475254 -23.523069 16.596207 0.039744 18.192335 33.697220 16.347925 34.584114 1.664564 1.329254 -0.255370 44.443665 0.000011 -0.000007 -3.183695 0.000008 0.000053 -2.332681 0.000021 0.000009 -0.000025 16.264580 0.135773 -8.634439 10.522576 -0.040927 -0.065216 10.403597 -0.008315 -0.076369 -0.000024 0.000012 -0.000003 14.859566 0.030500 -10.166785 9.797949 -0.023974 -0.026009 9.754650 0.001337 -0.030735 -0.000013 -0.000049 0.000010 14.178481 -0.067293 -10.669606 10.007290 0.038388 -0.016820 9.969900 0.001836 -0.011588 0.000012 -0.002149 -0.000001 13.216700 -0.136517 -12.206568 9.453690 0.131579 -0.062086 9.663365 0.004991 -0.084726 0.000978 0.000003 -0.000033 0.000000 0.000000 0.000000 0.000000 0.000000 0.000000 -90.147820 0.140178 8.774342 -60.199760 16.298372 4.594237 -1.220281 -11.773244 43.343037 -8.452806 -39.198906 -7.858592 -0.359397 0.172322 44.765347 0.000009 0.000031 -0.930789 0.000191 -0.000003 -0.660010 0.000250 -0.000004 0.000373 -12.736520 0.166090 -7.083961 -8.737790 -0.054279 -0.019781 -8.721929 -0.011635 -0.013367 0.000008 0.000502 -0.000004 -12.440286 0.059387 -8.800050 -8.422343 -0.034914 -0.007296 -8.541078 -0.005202 -0.008606 0.001426 -0.000027 -0.000053 -14.681083 -0.028652 -10.379237 -9.945072 0.051248 0.004606 -9.778454 0.004304 0.012316 0.000182 0.000015 -0.000006 -16.036869 -0.178727 -12.437330 -10.824256 0.109172 0.010394 -10.721642 -0.009975 -0.026027 -0.000117 0.000011 -0.000044 0.000000 0.000000 0.000000 0.000000 0.000000 0.000000 -7.439244 -6.654277 23.554979 -0.296939 -0.940621 18.397243 3.277447 -11.268429 8.801395 -1.459340 1.402439 -15.587150 0.000000 0.000000 0.000000 0.000000 0.000000 0.000000 0.000000 0.000000 0.000000 3.079248 -6.627621 17.553154 0.328320 0.740943 23.474022 -0.870916 3.538841 8.377685 0.749370 -0.959638 -19.046436 0.000000 0.000000 0.000000 0.000000 0.000000 0.000000 0.000000 0.000000 0.000000 
-0.794741 86.530441 11.488297 0.041088 4.117729 -23.013775 2.364249 -0.273438 10.512264 0.356717 -0.041777 0.862815 -2.362160 0.171643 16.664194 -2.045008 -0.160073 9.418249 -4.057127 2.021920 14.554507 -0.414016 1.194954 0.172653 -0.603953 -0.970355 -22.125309 0.000000 0.000000 0.000000 91.756126 -0.613081 13.096713 53.756145 -22.976603 16.389992 0.039736 18.324465 33.706299 16.438957 35.238018 1.878538 1.319894 -0.253971 44.446545 0.000011 -0.000007 -3.165102 0.000008 0.000053 -2.320791 0.000020 0.000009 -0.000025 16.122173 0.135731 -8.541306 10.425694 -0.039007 -0.067977 10.303669 -0.006648 -0.079086 -0.000024 0.000012 -0.000003 14.730289 0.030517 -10.096244 9.708467 -0.023203 -0.027560 9.667974 0.002056 -0.032027 -0.000013 -0.000050 0.000010 14.078852 -0.066451 -10.645411 9.921794 0.037364 -0.014533 9.883599 0.001097 -0.009383 0.000012 -0.002192 -0.000001 13.155464 -0.134869 -12.229897 9.393649 0.128364 -0.051535 9.599643 0.002249 -0.074396 0.000966 0.000003 -0.000033 0.000000 0.000000 0.000000 0.000000 0.000000 0.000000 -90.140045 0.135069 8.737621 -60.397324 15.868395 4.496811 -1.217842 -11.910353 43.448620 -8.623245 -39.685875 -7.600503 -0.337389 0.168650 44.775043 0.000009 0.000031 -0.874191 0.000193 -0.000003 -0.618199 0.000239 -0.000004 0.000368 -12.569218 0.166287 -6.986985 -8.669043 -0.053306 -0.018231 -8.653001 -0.010934 -0.012251 0.000008 0.000498 -0.000004 -12.289199 0.059226 -8.730085 -8.366282 -0.034539 -0.006206 -8.484509 -0.004779 -0.007728 0.001423 -0.000027 -0.000053 -14.575508 -0.027969 -10.361560 -9.901878 0.050107 0.002591 -9.736435 0.003520 0.010575 0.000180 0.000015 -0.000006 -15.968365 -0.176606 -12.481391 -10.800749 0.106807 0.003205 -10.699456 -0.012135 -0.031116 -0.000099 0.000011 -0.000044 0.000000 0.000000 0.000000 0.000000 0.000000 0.000000 -7.444464 -6.624890 23.583620 -0.297440 -0.943680 18.369041 3.298550 -11.250157 8.802545 -1.459662 1.403238 -15.584589 0.000000 0.000000 0.000000 0.000000 0.000000 0.000000 0.000000 0.000000 0.000000 3.058591 -6.617975 17.585678 0.327313 0.736533 23.437567 -0.859989 3.601091 8.379778 0.748335 -0.960848 -19.036512 0.000000 0.000000 0.000000 0.000000 0.000000 0.000000 0.000000 0.000000 0.000000 
-0.788556 86.534904 11.505878 0.035037 4.087912 -23.011126 2.369146 -0.276384 10.512341 0.346981 -0.036252 0.844557 -2.348627 0.192243 16.706003 -2.023797 -0.143212 9.416861 -3.976025 1.960949 14.572537 -0.406880 1.168575 0.179471 -0.575705 -0.962793 -22.129744 0.000000 0.000000 0.000000 91.733025 -0.612584 13.099617 54.078957 -22.356266 16.150101 0.041487 18.485790 33.785686 16.623562 36.048618 2.181324 1.312022 -0.252344 44.449326 0.000011 -0.000008 -3.149606 0.000007 0.000053 -2.310435 0.000020 0.000009 -0.000024 15.992175 0.135997 -8.419047 10.333601 -0.036866 -0.070228 10.207414 -0.004804 -0.081183 -0.000023 0.000012 -0.000003 14.608840 0.030626 -10.000100 9.623132 -0.022367 -0.028975 9.585334 0.002812 -0.033178 -0.000013 -0.000050 0.000009 13.989281 -0.065651 -10.603991 9.838514 0.036284 -0.012496 9.800109 0.000312 -0.007386 0.000012 -0.002236 -0.000001 13.110761 -0.133208 -12.244665 9.337107 0.124865 -0.041768 9.538018 -0.000690 -0.064476 0.000953 0.000002 -0.000032 0.000000 0.000000 0.000000 0.000000 0.000000 0.000000 -90.126343 0.129141 8.698391 -60.613972 15.392772 4.369176 -1.212334 -12.061568 43.635220 -8.964348 -40.286800 -7.235155 -0.318664 0.165435 44.783344 0.000009 0.000031 -0.825776 0.000195 -0.000003 -0.582328 0.000233 -0.000004 0.000363 -12.427233 0.166666 -6.872659 -8.607940 -0.052264 -0.017230 -8.590386 -0.010122 -0.011540 0.000008 0.000495 -0.000004 -12.162405 0.059156 -8.649252 -8.318552 -0.034118 -0.005215 -8.436355 -0.004310 -0.006967 0.001422 -0.000026 -0.000053 -14.490298 -0.027365 -10.343671 -9.869290 0.048831 0.000441 -9.703959 0.002687 0.008848 0.000173 0.000015 -0.000006 -15.917220 -0.174405 -12.534377 -10.789030 0.104185 -0.004447 -10.689901 -0.014488 -0.036236 -0.000082 0.000011 -0.000044 0.000000 0.000000 0.000000 0.000000 0.000000 0.000000 -7.446383 -6.600453 23.613352 -0.297896 -0.947256 18.331036 3.321486 -11.230438 8.806702 -1.460594 1.404584 -15.582970 0.000000 0.000000 0.000000 0.000000 0.000000 0.000000 0.000000 0.000000 0.000000 3.043110 -6.603257 17.613018 0.326372 0.732292 23.402290 -0.852101 3.663923 8.384296 0.747219 -0.961840 -19.028877 0.000000 0.000000 0.000000 0.000000 0.000000 0.000000 0.000000 0.000000 0.000000 
